# Blender v2.92.0 OBJ File: 'tiles.blend'
# www.blender.org
mtllib tileWallCorner.mtl
o WallCorner_Cube.006
v -1.000000 -1.000000 1.000000
v -1.000000 1.000000 1.000000
v 1.000000 -1.000000 1.000000
v 1.000000 1.000000 1.000000
v 1.000000 -1.000000 -1.000000
v 1.000000 1.000000 -1.000000
vt 1.000000 0.000000
vt 1.000000 1.000000
vt 0.500000 1.000000
vt 0.500000 0.000000
vt 1.000000 0.000000
vt 1.000000 1.000000
vt 0.500000 1.000000
vt 0.500000 0.000000
vn 1.0000 0.0000 0.0000
vn 0.0000 0.0000 1.0000
usemtl Material.005
s off
f 5/1/1 6/2/1 4/3/1 3/4/1
f 3/5/2 4/6/2 2/7/2 1/8/2
